<svg width="222" height="51" viewBox="0 0 222 51" fill="none" xmlns="http://www.w3.org/2000/svg">
<path d="M16.096 50.4687L10.7542 41.2164L18.5936 27.6754L23.5752 36.3045L52.9827 36.2887L44.6382 50.5965L16.096 50.4687Z" fill="white"/>
<path d="M58.2338 27.1016L52.8921 36.3537L37.2456 36.3353L42.2277 27.7064L27.5103 2.24667L44.0734 2.31935L58.2338 27.1016Z" fill="#D4D4D4"/>
<path d="M16.9191 2.19733H27.6028L35.4099 15.7571L25.446 15.7566L10.7561 41.2322L2.53735 26.8518L16.9191 2.19733Z" fill="#FBFBFB"/>
<path fill-rule="evenodd" clip-rule="evenodd" d="M27.8105 0.0531734L27.7798 0H15.064L0 25.8242L10.3407 43.9173L10.3534 43.8954L14.2626 50.6663L44.1588 50.8L54.6578 32.798H54.5879L58.4663 26.0805L43.634 0.122591L27.8105 0.0531734ZM37.6469 17.2747H37.7262L30.2514 4.29268L41.1738 4.34058L53.5897 26.0696L49.7035 32.8008L39.5192 32.8062L43.0701 26.6563L37.6469 17.2747ZM25.221 4.22868L30.3178 13.0458L23.261 13.0456L11.1795 33.9972L10.3554 35.4208L4.88304 25.8456L17.4929 4.22868H25.221ZM20.3207 26.6098L25.7038 17.2744L32.7625 17.2747L38.1863 26.6575L34.6347 32.8089L23.9028 32.8148L20.3207 26.6098ZM12.7933 39.6639L14.8412 36.1124L17.8867 30.8518L21.4619 37.0448L32.1922 37.0389L32.1748 37.0689L47.2612 37.0868L41.7361 46.5605L16.7103 46.4485L12.7933 39.6639Z" fill="#9A9A9A"/>
<path d="M140.817 16.0838C142.322 16.0838 143.545 14.8608 143.545 13.3245C143.545 11.7881 142.322 10.5966 140.817 10.5966C139.281 10.5966 138.058 11.7881 138.058 13.3245C138.058 14.8608 139.281 16.0838 140.817 16.0838ZM138.371 34.2068H143.231V18.5295H138.371V34.2068Z" fill="#606060"/>
<path d="M146.06 41.732H150.826V32.639C151.735 33.8306 153.805 34.6457 155.968 34.6457C160.64 34.6457 163.462 31.0713 163.338 26.1172C163.211 21.0689 160.295 18.0275 155.937 18.0275C153.711 18.0275 151.61 18.9995 150.732 20.4419L150.481 18.5293H146.06V41.732ZM150.92 26.368C150.92 24.0164 152.488 22.4487 154.745 22.4487C157.034 22.4487 158.477 24.0478 158.477 26.368C158.477 28.6882 157.034 30.2874 154.745 30.2874C152.488 30.2874 150.92 28.7196 150.92 26.368Z" fill="#606060"/>
<path d="M163.852 29.2527C163.976 32.4196 166.486 34.6143 170.436 34.6143C174.23 34.6143 176.864 32.6076 176.864 29.378C176.864 27.0578 175.485 25.5215 172.913 24.8942L170.122 24.2044C169.119 23.9536 168.491 23.7028 168.491 22.8876C168.491 22.0724 169.15 21.5393 170.122 21.5393C171.219 21.5393 171.94 22.2605 171.909 23.3266H176.268C176.143 20.0656 173.665 18.0275 170.216 18.0275C166.736 18.0275 164.134 20.097 164.134 23.2325C164.134 25.3333 165.294 27.0578 168.398 27.8731L171.157 28.5942C171.972 28.8137 172.317 29.1899 172.317 29.7229C172.317 30.5068 171.596 31.0086 170.374 31.0086C168.963 31.0086 168.211 30.3501 168.211 29.2527H163.852Z" fill="#606060"/>
<path d="M184.255 34.6146C186.167 34.6146 188.08 33.7367 189.053 32.4512L189.366 34.2069H193.913V18.5295H189.084V26.6818C189.084 29.0334 188.394 30.319 186.167 30.319C184.442 30.319 183.314 29.5351 183.314 26.619V18.5295H178.485V28.3749C178.485 32.1063 180.555 34.6146 184.255 34.6146Z" fill="#606060"/>
<path d="M201.569 34.2067V25.6468C201.569 23.0131 202.98 22.2605 204.36 22.2605C205.897 22.2605 206.901 23.2011 206.901 25.1452V34.2067H211.665V25.6468C211.665 22.9817 213.045 22.2291 214.424 22.2291C215.962 22.2291 216.996 23.1697 216.996 25.1452V34.2067H221.699V23.9537C221.699 20.3791 219.818 17.9962 215.773 17.9962C213.516 17.9962 211.665 19.0936 210.851 20.7868C209.91 19.0936 208.28 17.9962 205.677 17.9962C203.953 17.9962 202.353 18.7801 201.413 20.0342L201.224 18.5293H196.71V34.2067H201.569Z" fill="#606060"/>
<path d="M74.5922 11.0064H69.45V34.2092H83.6852V29.6627H74.5922V11.0064Z" fill="#606060"/>
<path d="M84.1763 26.3391C84.1763 31.293 87.5 34.5854 92.5167 34.5854C97.5022 34.5854 100.826 31.293 100.826 26.3391C100.826 21.3849 97.5022 18.0612 92.5167 18.0612C87.5 18.0612 84.1763 21.3849 84.1763 26.3391ZM89.0363 26.3077C89.0363 23.9559 90.4159 22.3883 92.5167 22.3883C94.5861 22.3883 95.9658 23.9559 95.9658 26.3077C95.9658 28.6906 94.5861 30.2583 92.5167 30.2583C90.4159 30.2583 89.0363 28.6906 89.0363 26.3077Z" fill="#606060"/>
<path d="M101.602 26.0881C101.602 30.8228 104.675 34.0209 109.034 34.0209C111.134 34.0209 112.953 33.2685 113.862 32.0456V34.2091C113.862 36.3726 112.514 37.8148 110.131 37.8148C107.999 37.8148 106.525 36.8115 106.431 35.0242H101.54C101.979 39.3199 105.302 42.2046 109.849 42.2046C115.211 42.2046 118.597 38.7242 118.597 33.2058V18.5316H114.239L113.988 20.1308C113.11 18.8451 111.26 17.9986 109.128 17.9986C104.738 17.9986 101.602 21.2908 101.602 26.0881ZM106.494 25.9628C106.494 23.7051 107.999 22.2002 109.911 22.2002C112.138 22.2002 113.768 23.6738 113.768 25.9628C113.768 28.2516 112.169 29.8193 109.943 29.8193C108.03 29.8193 106.494 28.2516 106.494 25.9628Z" fill="#606060"/>
<path d="M120.004 26.3391C120.004 31.293 123.328 34.5854 128.345 34.5854C133.33 34.5854 136.654 31.293 136.654 26.3391C136.654 21.3849 133.33 18.0612 128.345 18.0612C123.328 18.0612 120.004 21.3849 120.004 26.3391ZM124.864 26.3077C124.864 23.9559 126.244 22.3883 128.345 22.3883C130.414 22.3883 131.794 23.9559 131.794 26.3077C131.794 28.6906 130.414 30.2583 128.345 30.2583C126.244 30.2583 124.864 28.6906 124.864 26.3077Z" fill="#606060"/>
</svg>
