<svg width="328" height="112" viewBox="0 0 328 112" fill="none" xmlns="http://www.w3.org/2000/svg">
<g filter="url(#filter0_d_6825_8357)">
<path d="M49.7776 84H27.9536V23.9799H49.7776V84ZM28.9461 82.9413H48.7851V25.0396H28.9461V82.9413Z" fill="white"/>
<path d="M80.7032 45.9532H27.9535V23.9798H80.7032V45.9532ZM28.946 44.954H79.7107V24.9791H28.946V44.954Z" fill="white"/>
<path d="M70.7466 63.7565H27.9536V44.8648H70.7466V63.7565ZM28.9461 62.7573H69.7541V45.8641H28.9461V62.7573Z" fill="white"/>
<path d="M70.5837 62.8855L28.7847 24.108L28.1122 24.8428L69.9113 63.6204L70.5837 62.8855Z" fill="white"/>
<path d="M49.0383 83.7192L27.6376 63.2422L79.9099 24.0783L80.5024 24.8802L29.2598 63.2732L49.6595 82.9403L49.0383 83.7192Z" fill="white"/>
<path d="M31.1995 63.257C31.1995 64.7859 29.9684 66.0255 28.4499 66.0255C26.931 66.0255 25.6998 64.7859 25.6998 63.257C25.6998 61.7276 26.931 60.4886 28.4499 60.4886C29.9684 60.4886 31.1995 61.7281 31.1995 63.257Z" fill="#E1E000"/>
<path d="M52.0984 63.257C52.0984 64.7859 50.8672 66.0255 49.3488 66.0255C47.8298 66.0255 46.5986 64.7859 46.5986 63.257C46.5986 61.7276 47.8298 60.4886 49.3488 60.4886C50.8672 60.4886 52.0984 61.7281 52.0984 63.257Z" fill="#E1E000"/>
<path d="M82.9564 24.4805C82.9564 26.0094 81.7253 27.2489 80.2068 27.2489C78.6878 27.2489 77.4567 26.0094 77.4567 24.4805C77.4567 22.9516 78.6878 21.712 80.2068 21.712C81.7253 21.712 82.9564 22.9516 82.9564 24.4805Z" fill="#E1E000"/>
<path d="M32.8984 24.4797C32.8984 26.9538 30.9066 28.9594 28.4492 28.9594C25.9919 28.9594 24 26.9538 24 24.4797C24 22.0055 25.9919 20 28.4492 20C30.9066 20 32.8984 22.0055 32.8984 24.4797Z" fill="#E1E000"/>
<path d="M53.7994 45.4539C53.7994 47.9281 51.8075 49.9336 49.3502 49.9336C46.8928 49.9336 44.9009 47.9281 44.9009 45.4539C44.9009 42.9797 46.8928 40.9742 49.3502 40.9742C51.8075 40.9742 53.7994 42.9792 53.7994 45.4539Z" fill="#00A69D"/>
<path d="M107.77 39.3439L113.567 58.51L119.366 39.3439H125.638L116.959 65.4861H109.994L101.242 39.3439H107.77Z" fill="white"/>
<path d="M134.099 39.3437H128.081V65.4858H134.099V39.3437Z" fill="white"/>
<path d="M143.069 39.3437L148.866 58.5097L154.665 39.3437H160.937L152.259 65.4858H145.292L136.541 39.3437H143.069Z" fill="white"/>
<path d="M169.396 39.3437H163.379V65.4858H169.396V39.3437Z" fill="white"/>
<path d="M187.594 51.644L196.892 65.4858H189.964L184.093 56.05L178.258 65.4858H171.585L180.848 51.644L172.606 39.3437H179.389L184.384 47.3847L189.308 39.3437H195.908L187.594 51.644Z" fill="white"/>
<path d="M212.806 40.159C211.688 40.159 210.758 40.238 210.016 40.3975C209.274 40.557 208.679 40.875 208.229 41.352C207.779 41.8295 207.463 42.5029 207.281 43.3709C207.098 44.2401 207.007 45.3717 207.007 46.7675H214.41L214.009 48.6029H207.007V65.6395H204.892V46.5103C204.892 44.9678 205.032 43.6713 205.312 42.6176C205.591 41.566 206.041 40.7155 206.661 40.0667C207.281 39.4184 208.083 38.9596 209.068 38.6896C210.052 38.4207 211.249 38.2857 212.66 38.2857H214.119C214.629 38.2857 215.261 38.3102 216.015 38.3593L215.614 40.2321C215.127 40.2081 214.616 40.1894 214.082 40.1766C213.548 40.1654 213.122 40.159 212.806 40.159Z" fill="white"/>
<path d="M231.258 63.5469C231.258 64.3792 231.106 64.9362 230.803 65.2179C230.498 65.4991 229.896 65.64 228.997 65.64H223.017C220.513 65.64 218.715 65.1987 217.62 64.3178C216.526 63.437 215.979 62.0049 215.979 60.0223V59.5074C215.979 57.4517 216.531 55.9594 217.638 55.0283C218.744 54.0984 220.538 53.6331 223.016 53.6331C224.694 53.6331 226.031 53.7926 227.028 54.1106C228.024 54.4292 228.753 54.8699 229.215 55.4328V53.2298C229.215 52.3489 229.13 51.6089 228.961 51.0086C228.791 50.4089 228.486 49.9314 228.049 49.5766C227.612 49.2218 227.003 48.9652 226.226 48.8056C225.448 48.6466 224.463 48.5671 223.272 48.5671C222.373 48.5671 221.424 48.573 220.428 48.5853C219.431 48.5975 218.531 48.6285 217.73 48.677L218.131 46.768C218.811 46.744 219.613 46.7248 220.538 46.7125C221.461 46.7008 222.373 46.6944 223.272 46.6944C224.731 46.6944 225.964 46.8113 226.973 47.0428C227.981 47.276 228.802 47.643 229.435 48.144C230.067 48.6461 230.529 49.2949 230.821 50.0899C231.113 50.8854 231.258 51.8586 231.258 53.0089V63.5469ZM218.021 59.9855C218.021 60.646 218.099 61.21 218.258 61.6747C218.416 62.1399 218.683 62.531 219.06 62.8495C219.437 63.168 219.947 63.3996 220.592 63.5469C221.236 63.6936 222.044 63.7672 223.017 63.7672H229.216V59.3612C229.216 58.578 229.089 57.9356 228.833 57.4341C228.578 56.9325 228.206 56.534 227.721 56.24C227.234 55.9471 226.632 55.7395 225.916 55.6168C225.198 55.4946 224.378 55.4328 223.454 55.4328H222.98C221.18 55.4328 219.904 55.7326 219.15 56.3328C218.397 56.9325 218.02 57.9911 218.02 59.5079V59.9855H218.021Z" fill="white"/>
<path d="M244.058 63.8406C245.055 63.8406 245.966 63.8347 246.793 63.8225C247.619 63.8102 248.373 63.792 249.054 63.767L248.653 65.6402C248.093 65.6643 247.382 65.6824 246.52 65.6957C245.657 65.7075 244.836 65.7139 244.058 65.7139C242.478 65.7139 241.158 65.5485 240.101 65.2182C239.044 64.8874 238.192 64.38 237.549 63.6944C236.904 63.0093 236.449 62.1338 236.181 61.0694C235.914 60.0044 235.78 58.7255 235.78 57.2322V55.1764C235.78 53.6099 235.932 52.2883 236.235 51.2106C236.539 50.1339 237.025 49.2594 237.695 48.5856C238.363 47.9122 239.22 47.4288 240.265 47.1349C241.31 46.8414 242.575 46.6942 244.058 46.6942H246.246C247.072 46.6942 247.997 46.7192 249.017 46.7683L248.617 48.641C247.692 48.592 246.853 48.5674 246.101 48.5674H244.058C242.891 48.5674 241.912 48.6592 241.122 48.8427C240.332 49.0263 239.699 49.3635 239.226 49.8527C238.751 50.3425 238.417 51.0159 238.222 51.8717C238.028 52.7291 237.931 53.8303 237.931 55.1764V57.2322C237.931 58.4812 238.028 59.5275 238.222 60.3721C238.417 61.2167 238.745 61.8953 239.207 62.4091C239.669 62.9229 240.295 63.2905 241.085 63.5109C241.876 63.7307 242.866 63.8406 244.058 63.8406Z" fill="white"/>
<path d="M256.054 41.4438C256.054 42.0317 255.92 42.4479 255.653 42.6923C255.385 42.9372 254.997 43.0593 254.486 43.0593C253.975 43.0593 253.587 42.9372 253.319 42.6923C253.052 42.4479 252.918 42.0317 252.918 41.4438C252.918 40.9049 253.039 40.5015 253.283 40.2321C253.526 39.9627 253.927 39.8282 254.486 39.8282C255.045 39.8282 255.446 39.9627 255.69 40.2321C255.932 40.5021 256.054 40.9054 256.054 41.4438ZM253.429 46.768H255.543V65.6399H253.429V46.768Z" fill="white"/>
<path d="M262.911 38.3594H260.795V65.6396H262.911V38.3594Z" fill="white"/>
<path d="M270.787 41.4438C270.787 42.0317 270.653 42.4479 270.386 42.6923C270.117 42.9372 269.729 43.0593 269.219 43.0593C268.708 43.0593 268.319 42.9372 268.052 42.6923C267.784 42.4479 267.651 42.0317 267.651 41.4438C267.651 40.9049 267.772 40.5015 268.015 40.2321C268.258 39.9627 268.659 39.8282 269.219 39.8282C269.778 39.8282 270.179 39.9627 270.422 40.2321C270.665 40.5021 270.787 40.9054 270.787 41.4438ZM268.161 46.768H270.276V65.6399H268.161V46.768Z" fill="white"/>
<path d="M275.528 41.9944L277.643 41.5905V46.7675H285.338L284.936 48.6029H277.643V59.2135C277.643 60.1199 277.703 60.8664 277.826 61.4538C277.946 62.0412 278.172 62.506 278.5 62.849C278.828 63.1916 279.277 63.4306 279.849 63.565C280.419 63.6995 281.168 63.7667 282.091 63.7667H284.899L284.499 65.6389H282.091C280.852 65.6389 279.812 65.5477 278.974 65.3636C278.135 65.1801 277.46 64.8498 276.95 64.3723C276.439 63.8953 276.075 63.2476 275.856 62.427C275.637 61.6075 275.528 60.5484 275.528 59.2513V41.9944Z" fill="white"/>
<path d="M303.459 63.5469C303.459 64.3792 303.307 64.9362 303.005 65.2179C302.7 65.4991 302.098 65.64 301.199 65.64H295.219C292.715 65.64 290.916 65.1987 289.822 64.3178C288.728 63.437 288.18 62.0049 288.18 60.0223V59.5074C288.18 57.4517 288.732 55.9594 289.839 55.0283C290.945 54.0984 292.739 53.6331 295.218 53.6331C296.896 53.6331 298.232 53.7926 299.229 54.1106C300.226 54.4292 300.955 54.8699 301.417 55.4328V53.2298C301.417 52.3489 301.332 51.6089 301.162 51.0086C300.992 50.4089 300.688 49.9314 300.251 49.5766C299.813 49.2218 299.205 48.9652 298.427 48.8056C297.649 48.6466 296.665 48.5671 295.474 48.5671C294.575 48.5671 293.626 48.573 292.63 48.5853C291.632 48.5975 290.733 48.6285 289.931 48.677L290.332 46.768C291.012 46.744 291.815 46.7248 292.739 46.7125C293.662 46.7008 294.575 46.6944 295.474 46.6944C296.932 46.6944 298.165 46.8113 299.175 47.0428C300.183 47.276 301.004 47.643 301.637 48.144C302.268 48.6461 302.73 49.2949 303.021 50.0899C303.314 50.8854 303.459 51.8586 303.459 53.0089V63.5469ZM290.222 59.9855C290.222 60.646 290.3 61.21 290.459 61.6747C290.618 62.1399 290.885 62.531 291.262 62.8495C291.638 63.168 292.149 63.3996 292.794 63.5469C293.437 63.6936 294.246 63.7672 295.219 63.7672H301.418V59.3612C301.418 58.578 301.291 57.9356 301.034 57.4341C300.78 56.9325 300.409 56.534 299.923 56.24C299.436 55.9471 298.834 55.7395 298.117 55.6168C297.4 55.4946 296.58 55.4328 295.656 55.4328H295.181C293.382 55.4328 292.105 55.7326 291.352 56.3328C290.598 56.9325 290.221 57.9911 290.221 59.5079V59.9855H290.222Z" fill="white"/>
</g>
<defs>
<filter id="filter0_d_6825_8357" x="0" y="0" width="327.459" height="112" filterUnits="userSpaceOnUse" color-interpolation-filters="sRGB">
<feFlood flood-opacity="0" result="BackgroundImageFix"/>
<feColorMatrix in="SourceAlpha" type="matrix" values="0 0 0 0 0 0 0 0 0 0 0 0 0 0 0 0 0 0 127 0" result="hardAlpha"/>
<feOffset dy="4"/>
<feGaussianBlur stdDeviation="12"/>
<feComposite in2="hardAlpha" operator="out"/>
<feColorMatrix type="matrix" values="0 0 0 0 0.0705882 0 0 0 0 0.0705882 0 0 0 0 0.0705882 0 0 0 0.16 0"/>
<feBlend mode="normal" in2="BackgroundImageFix" result="effect1_dropShadow_6825_8357"/>
<feBlend mode="normal" in="SourceGraphic" in2="effect1_dropShadow_6825_8357" result="shape"/>
</filter>
</defs>
</svg>
