<svg width="258" height="48" viewBox="0 0 258 48" fill="none" xmlns="http://www.w3.org/2000/svg">
<path d="M20.8751 0.420923C20.9725 0.0636482 20.5002 -0.160603 20.285 0.140742L0.0623821 28.4579C-0.0944651 28.6775 0.0625013 28.9826 0.332351 28.9826H12.865C13.0876 28.9826 13.2471 29.1976 13.1825 29.4107L7.68076 47.57C7.57259 47.927 8.04479 48.1633 8.26564 47.8627L29.0259 19.6002C29.1869 19.3811 29.0304 19.0719 28.7585 19.0719H16.2238C16.005 19.0719 15.8461 18.8639 15.9037 18.6528L20.8751 0.420923Z" fill="white"/>
<path d="M47.6109 33.5V13.06H51.5029V33.5H47.6109ZM50.9429 33.5V30.14H60.2109V33.5H50.9429ZM50.9429 24.792V21.432H59.4829V24.792H50.9429ZM50.9429 16.42V13.06H59.9869V16.42H50.9429ZM63.9826 33.5V18.296H67.0626V24.82H66.7826C66.7826 23.2707 66.9879 21.9827 67.3986 20.956C67.8092 19.9107 68.4159 19.1267 69.2186 18.604C70.0399 18.0813 71.0572 17.82 72.2706 17.82H72.4386C74.2492 17.82 75.6212 18.408 76.5546 19.584C77.4879 20.7413 77.9546 22.4773 77.9546 24.792V33.5H74.0626V24.456C74.0626 23.5227 73.7919 22.7667 73.2506 22.188C72.7279 21.6093 71.9999 21.32 71.0666 21.32C70.1146 21.32 69.3399 21.6187 68.7426 22.216C68.1639 22.7947 67.8746 23.5787 67.8746 24.568V33.5H63.9826ZM88.9428 34.032C87.6362 34.032 86.4882 33.808 85.4988 33.36C84.5282 32.912 83.7162 32.3147 83.0628 31.568C82.4282 30.8027 81.9428 29.9533 81.6068 29.02C81.2895 28.0867 81.1308 27.1347 81.1308 26.164V25.632C81.1308 24.624 81.2895 23.6533 81.6068 22.72C81.9428 21.768 82.4282 20.928 83.0628 20.2C83.7162 19.4533 84.5188 18.8653 85.4708 18.436C86.4228 17.988 87.5242 17.764 88.7748 17.764C90.4175 17.764 91.7895 18.128 92.8908 18.856C94.0108 19.5653 94.8508 20.508 95.4108 21.684C95.9708 22.8413 96.2508 24.092 96.2508 25.436V26.836H82.7828V24.456H93.8148L92.6108 25.632C92.6108 24.6613 92.4708 23.8307 92.1908 23.14C91.9108 22.4493 91.4815 21.9173 90.9028 21.544C90.3428 21.1707 89.6335 20.984 88.7748 20.984C87.9162 20.984 87.1882 21.18 86.5908 21.572C85.9935 21.964 85.5362 22.5333 85.2188 23.28C84.9202 24.008 84.7708 24.8853 84.7708 25.912C84.7708 26.864 84.9202 27.7133 85.2188 28.46C85.5175 29.188 85.9748 29.7667 86.5908 30.196C87.2068 30.6067 87.9908 30.812 88.9428 30.812C89.8948 30.812 90.6695 30.6253 91.2668 30.252C91.8642 29.86 92.2468 29.384 92.4148 28.824H95.9988C95.7748 29.8693 95.3455 30.784 94.7108 31.568C94.0762 32.352 93.2642 32.9587 92.2748 33.388C91.3042 33.8173 90.1935 34.032 88.9428 34.032ZM99.5021 33.5V18.296H102.582V24.736H102.498C102.498 22.552 102.965 20.9 103.898 19.78C104.831 18.66 106.203 18.1 108.014 18.1H108.574V21.488H107.51C106.203 21.488 105.186 21.8427 104.458 22.552C103.749 23.2427 103.394 24.2507 103.394 25.576V33.5H99.5021ZM117.005 39.492C116.277 39.492 115.53 39.464 114.765 39.408C114.018 39.352 113.318 39.2773 112.665 39.184V35.936C113.337 36.0107 114.055 36.076 114.821 36.132C115.586 36.2067 116.305 36.244 116.977 36.244C118.227 36.244 119.235 36.0947 120.001 35.796C120.785 35.4973 121.354 35.0213 121.709 34.368C122.082 33.7333 122.269 32.9213 122.269 31.932V28.936L123.109 27.032C123.053 28.432 122.763 29.6267 122.241 30.616C121.718 31.5867 121.009 32.3333 120.113 32.856C119.217 33.36 118.181 33.612 117.005 33.612C115.959 33.612 115.007 33.416 114.149 33.024C113.309 32.632 112.581 32.0907 111.965 31.4C111.367 30.7093 110.901 29.8973 110.565 28.964C110.229 28.0307 110.061 27.032 110.061 25.968V25.38C110.061 24.316 110.229 23.3267 110.565 22.412C110.919 21.4787 111.414 20.6667 112.049 19.976C112.683 19.2853 113.439 18.7533 114.317 18.38C115.194 18.0067 116.165 17.82 117.229 17.82C118.479 17.82 119.562 18.0907 120.477 18.632C121.41 19.1733 122.138 19.9573 122.661 20.984C123.183 22.0107 123.473 23.2707 123.529 24.764L122.857 24.876V18.296H125.937V31.708C125.937 33.556 125.619 35.0493 124.985 36.188C124.35 37.3267 123.37 38.1573 122.045 38.68C120.738 39.2213 119.058 39.492 117.005 39.492ZM118.125 30.28C118.871 30.28 119.553 30.112 120.169 29.776C120.785 29.44 121.279 28.9547 121.653 28.32C122.026 27.6853 122.213 26.92 122.213 26.024V25.044C122.213 24.1853 122.017 23.4573 121.625 22.86C121.251 22.2627 120.757 21.8147 120.141 21.516C119.525 21.1987 118.853 21.04 118.125 21.04C117.303 21.04 116.575 21.236 115.941 21.628C115.325 22.0013 114.839 22.5333 114.485 23.224C114.13 23.9147 113.953 24.736 113.953 25.688C113.953 26.6213 114.13 27.4333 114.485 28.124C114.839 28.8147 115.325 29.3467 115.941 29.72C116.575 30.0933 117.303 30.28 118.125 30.28ZM129.734 39.492V36.16H132.59C133.131 36.16 133.579 36.0853 133.934 35.936C134.307 35.8053 134.615 35.5813 134.858 35.264C135.1 34.9653 135.287 34.5453 135.418 34.004L139.506 18.296H143.23L138.722 34.844C138.423 35.9827 138.003 36.888 137.462 37.56C136.92 38.2507 136.22 38.7453 135.362 39.044C134.522 39.3427 133.476 39.492 132.226 39.492H129.734ZM134.466 33.164V30.084H137.714V33.164H134.466ZM133.15 33.164L128.222 18.296H132.142L136.818 33.164H133.15ZM144.196 33.5L151.168 13.06H157.664L164.832 33.5H160.744L154.668 15.776L156.096 16.392H152.596L154.052 15.776L148.172 33.5H144.196ZM149.068 28.068L150.328 24.708H158.616L159.848 28.068H149.068ZM173.642 34.004C172.578 34.004 171.598 33.808 170.702 33.416C169.806 33.024 169.031 32.4733 168.378 31.764C167.725 31.0547 167.221 30.2333 166.866 29.3C166.511 28.348 166.334 27.3213 166.334 26.22V25.632C166.334 24.5493 166.502 23.532 166.838 22.58C167.193 21.628 167.678 20.7973 168.294 20.088C168.929 19.3787 169.685 18.828 170.562 18.436C171.458 18.0253 172.447 17.82 173.53 17.82C174.725 17.82 175.77 18.0813 176.666 18.604C177.581 19.108 178.309 19.8733 178.85 20.9C179.391 21.9267 179.69 23.2147 179.746 24.764L178.598 23.42V13.06H182.49V33.5H179.41V27.032H180.082C180.026 28.5813 179.709 29.8787 179.13 30.924C178.551 31.9507 177.786 32.7253 176.834 33.248C175.901 33.752 174.837 34.004 173.642 34.004ZM174.51 30.728C175.275 30.728 175.975 30.56 176.61 30.224C177.245 29.8693 177.749 29.3653 178.122 28.712C178.514 28.04 178.71 27.256 178.71 26.36V25.24C178.71 24.344 178.514 23.5973 178.122 23C177.73 22.384 177.217 21.9173 176.582 21.6C175.947 21.264 175.257 21.096 174.51 21.096C173.67 21.096 172.923 21.3013 172.27 21.712C171.635 22.104 171.131 22.664 170.758 23.392C170.403 24.12 170.226 24.9693 170.226 25.94C170.226 26.9107 170.413 27.76 170.786 28.488C171.159 29.1973 171.663 29.748 172.298 30.14C172.951 30.532 173.689 30.728 174.51 30.728ZM189.972 33.5L185.212 18.296H189.216L193.78 33.5H189.972ZM191.12 33.5V30.308H195.236V33.5H191.12ZM192.66 33.5L196.58 18.296H200.332L196.216 33.5H192.66ZM204 33.5V18.296H207.892V33.5H204ZM201.872 21.208V18.296H207.892V21.208H201.872ZM205.428 16.476C204.662 16.476 204.093 16.28 203.72 15.888C203.365 15.4773 203.188 14.9733 203.188 14.376C203.188 13.7413 203.365 13.228 203.72 12.836C204.093 12.444 204.662 12.248 205.428 12.248C206.193 12.248 206.753 12.444 207.108 12.836C207.462 13.228 207.64 13.7413 207.64 14.376C207.64 14.9733 207.462 15.4773 207.108 15.888C206.753 16.28 206.193 16.476 205.428 16.476ZM217.893 33.976C215.802 33.976 214.16 33.5373 212.965 32.66C211.789 31.764 211.173 30.532 211.117 28.964H214.617C214.673 29.4867 214.962 29.9627 215.485 30.392C216.008 30.8213 216.829 31.036 217.949 31.036C218.882 31.036 219.62 30.868 220.161 30.532C220.721 30.196 221.001 29.7387 221.001 29.16C221.001 28.656 220.786 28.2547 220.357 27.956C219.946 27.6573 219.237 27.4613 218.229 27.368L216.885 27.228C215.186 27.0413 213.88 26.556 212.965 25.772C212.05 24.988 211.593 23.9427 211.593 22.636C211.593 21.5907 211.854 20.7133 212.377 20.004C212.9 19.2947 213.618 18.7627 214.533 18.408C215.466 18.0347 216.53 17.848 217.725 17.848C219.592 17.848 221.104 18.2587 222.261 19.08C223.418 19.9013 224.025 21.1053 224.081 22.692H220.581C220.544 22.1693 220.282 21.7213 219.797 21.348C219.312 20.9747 218.612 20.788 217.697 20.788C216.876 20.788 216.241 20.9467 215.793 21.264C215.345 21.5813 215.121 21.992 215.121 22.496C215.121 22.9813 215.298 23.3547 215.653 23.616C216.026 23.8773 216.624 24.0547 217.445 24.148L218.789 24.288C220.581 24.4747 221.981 24.9693 222.989 25.772C224.016 26.5747 224.529 27.6573 224.529 29.02C224.529 30.028 224.249 30.9053 223.689 31.652C223.148 32.38 222.382 32.9493 221.393 33.36C220.404 33.7707 219.237 33.976 217.893 33.976ZM235.052 34.032C233.708 34.032 232.523 33.8173 231.496 33.388C230.47 32.9587 229.602 32.38 228.892 31.652C228.183 30.9053 227.642 30.0653 227.268 29.132C226.914 28.1987 226.736 27.228 226.736 26.22V25.632C226.736 24.5867 226.923 23.5973 227.296 22.664C227.688 21.712 228.239 20.872 228.948 20.144C229.676 19.3973 230.554 18.8187 231.58 18.408C232.607 17.9787 233.764 17.764 235.052 17.764C236.34 17.764 237.498 17.9787 238.524 18.408C239.551 18.8187 240.419 19.3973 241.128 20.144C241.856 20.872 242.407 21.712 242.78 22.664C243.154 23.5973 243.34 24.5867 243.34 25.632V26.22C243.34 27.228 243.154 28.1987 242.78 29.132C242.426 30.0653 241.894 30.9053 241.184 31.652C240.475 32.38 239.607 32.9587 238.58 33.388C237.554 33.8173 236.378 34.032 235.052 34.032ZM235.052 30.7C236.004 30.7 236.807 30.4947 237.46 30.084C238.114 29.6547 238.608 29.0853 238.944 28.376C239.28 27.648 239.448 26.8267 239.448 25.912C239.448 24.9787 239.271 24.1573 238.916 23.448C238.58 22.72 238.076 22.1507 237.404 21.74C236.751 21.3107 235.967 21.096 235.052 21.096C234.138 21.096 233.344 21.3107 232.672 21.74C232.019 22.1507 231.515 22.72 231.16 23.448C230.806 24.1573 230.628 24.9787 230.628 25.912C230.628 26.8267 230.796 27.648 231.132 28.376C231.487 29.0853 231.991 29.6547 232.644 30.084C233.298 30.4947 234.1 30.7 235.052 30.7ZM246.748 33.5V18.296H249.828V24.736H249.744C249.744 22.552 250.211 20.9 251.144 19.78C252.078 18.66 253.45 18.1 255.26 18.1H255.82V21.488H254.756C253.45 21.488 252.432 21.8427 251.704 22.552C250.995 23.2427 250.64 24.2507 250.64 25.576V33.5H246.748Z" fill="white"/>
</svg>
